<?xml version="1.0" encoding="utf-8"?><svg version="1.1" id="Layer_1" xmlns="http://www.w3.org/2000/svg" xmlns:xlink="http://www.w3.org/1999/xlink" x="0px" y="0px" viewBox="0 0 122.88 101.533" enable-background="new 0 0 122.88 101.533" xml:space="preserve"><g><path d="M9.943,0h102.993c2.728,0,5.21,1.118,7.011,2.917l0.016,0.016c1.799,1.801,2.917,4.281,2.917,7.01v81.649 c0,2.729-1.118,5.209-2.917,7.01l-0.016,0.016c-1.801,1.799-4.283,2.916-7.011,2.916H9.943c-2.728,0-5.209-1.117-7.01-2.916 l-0.016-0.016C1.119,96.801,0,94.32,0,91.592V9.943c0-2.729,1.119-5.209,2.917-7.01l0.016-0.016C4.734,1.118,7.216,0,9.943,0 L9.943,0z M29.499,33.374h28.782v7.436H40.293v5.538h16.677v7.1H40.293v6.855h18.521v7.877H29.499V33.374L29.499,33.374 L29.499,33.374z M61.832,56.664l10.205-0.635c0.215,1.654,0.673,2.918,1.355,3.777c1.113,1.404,2.694,2.105,4.752,2.105 c1.534,0,2.713-0.355,3.545-1.076c0.833-0.721,1.244-1.553,1.244-2.506c0-0.898-0.393-1.713-1.178-2.424 c-0.786-0.711-2.62-1.373-5.491-2.02c-4.714-1.057-8.072-2.461-10.083-4.219c-2.029-1.749-3.041-3.984-3.041-6.707 c0-1.787,0.515-3.47,1.554-5.06c1.038-1.6,2.591-2.844,4.677-3.751c2.086-0.907,4.938-1.366,8.559-1.366 c4.452,0,7.839,0.823,10.168,2.488c2.328,1.656,3.722,4.284,4.162,7.904l-10.112,0.599c-0.271-1.581-0.832-2.732-1.692-3.443 c-0.87-0.72-2.058-1.076-3.573-1.076c-1.244,0-2.198,0.271-2.825,0.795c-0.636,0.524-0.944,1.178-0.944,1.937 c0,0.552,0.262,1.047,0.767,1.487c0.496,0.458,1.693,0.88,3.593,1.282c4.695,1.01,8.063,2.039,10.083,3.078 c2.029,1.038,3.517,2.32,4.442,3.854c0.927,1.533,1.385,3.244,1.385,5.152c0,2.227-0.617,4.285-1.843,6.174 c-1.244,1.881-2.955,3.313-5.173,4.283c-2.207,0.975-4.994,1.461-8.371,1.461c-5.912,0-10.018-1.143-12.291-3.424 C63.422,63.063,62.131,60.172,61.832,56.664L61.832,56.664L61.832,56.664z M112.937,7.95H9.943c-0.551,0-1.051,0.222-1.413,0.58 c-0.358,0.362-0.58,0.862-0.58,1.413v81.649c0,0.551,0.222,1.051,0.58,1.412c0.362,0.357,0.862,0.58,1.413,0.58h102.993 c0.552,0,1.052-0.223,1.414-0.58c0.357-0.361,0.579-0.861,0.579-1.412V9.943c0-0.551-0.222-1.051-0.579-1.413 C113.988,8.172,113.488,7.95,112.937,7.95L112.937,7.95z"/></g></svg>